# xmcd CD database file
#
# Track frame offsets:
#	150
#	11560
#	19972
#	32582
#	40602
#	51300
#	61680
#	73182
#	87680
#	99985
#	111272
#	126425
#	135912
#	146900
#	155515
#	165195
#	175632
#	188527
#	201420
#	215557
#
# Disc length: 3026 seconds
#
# Revision: 2
# Processed by: cddbd v1.5.2PL0 Copyright (c) Steve Scherf et al.
# Submitted via: jetAudio 7
#
DISCID=160bd014
DTITLE=Floyd Cramer - The Masters
DYEAR=1998
DGENRE=Instrumental
TTITLE0=Your Cheatin' Heart
TTITLE1=Hey, Good Lookin'
TTITLE2=You Don't Know Me
TTITLE3=Faded Love
TTITLE4=San Antonio Rose
TTITLE5=Back In The Saddle Again
TTITLE6=King Of The Road
TTITLE7=Release Me (And Let Me Love Again)
TTITLE8=Funny, Familiar, Forgotten Feelings
TTITLE9=Little Green Apples
TTITLE10=For The Good Times
TTITLE11=Gentle On My Mind
TTITLE12=Welcome To My World
TTITLE13=Bonaparte's Retreat
TTITLE14=Jambalaya (On The Bayou)
TTITLE15=Laura (What's He Got That I Ain't Got)
TTITLE16=Ode To Billy Joe
TTITLE17=The End Of The World
TTITLE18=Almost Persuaded
TTITLE19=Daddy Sang Bass
EXTD=
EXTT0=
EXTT1=
EXTT2=
EXTT3=
EXTT4=
EXTT5=
EXTT6=
EXTT7=
EXTT8=
EXTT9=
EXTT10=
EXTT11=
EXTT12=
EXTT13=
EXTT14=
EXTT15=
EXTT16=
EXTT17=
EXTT18=
EXTT19=
PLAYORDER=
